<?xml version="1.0" standalone="no"?><!DOCTYPE svg PUBLIC "-//W3C//DTD SVG 1.1//EN" "http://www.w3.org/Graphics/SVG/1.1/DTD/svg11.dtd"><svg t="1575258119073" class="icon" viewBox="0 0 1024 1024" version="1.1" xmlns="http://www.w3.org/2000/svg" p-id="2494" xmlns:xlink="http://www.w3.org/1999/xlink" width="48" height="48"><defs><style type="text/css"></style></defs><path d="M956.16 73.92c-29.76-29.76-589.44-64-800 148.16C16.96 361.28 11.2 588.16 130.88 763.52l-72.32 72a96 96 0 0 0 135.68 135.68l72.32-72c175.36 119.68 402.24 113.92 541.44-25.28 210.88-210.88 177.92-770.56 148.16-800z m-149.44 206.08l-140.16 140.16h96a40 40 0 0 1 0 80h-175.68l-160 160h199.68a40 40 0 0 1 0 80h-278.4c-109.76 109.76-136 23.04-104-8.96L416 556.48V276.8a40 40 0 1 1 80 0v199.68l44.8-44.8L750.08 224a40 40 0 0 1 56.64 56.64z" fill="#adff2f" p-id="2495"></path></svg>